# xmcd
#
# Track frame offsets: 
#        215
#        6800
#        21090
#        35145
#        40420
#        51660
#        66125
#        78287
#        86927
#        98260
#        111680
#        122325
#        127165
#        144495
#        161905
#        174057
#        189825
#        206467
#        217567
#        234902
#        250040
#        265167
#        278282
#        290525
#        308707
#
# Disc length: 4410 seconds
#
# Revision: 1
# Processed by: cddbd v1.5.2PL0 Copyright (c) Steve Scherf et al.
# Submitted via: ExactAudioCopy v0.99pb5
#
DISCID=53113819
DTITLE=Various Artist - Early Rhythm and Blues
DYEAR=1996
DGENRE=R&B
TTITLE0=Introduction
TTITLE1=Louis Jordan - Five Guys Named Moe
TTITLE2=The Duke of Iron - Marry a Woman Uglier Than You
TTITLE3=Ernest 'Bubbles' Whitman - Whitman Patter
TTITLE4=Meade Lux Lewis - Honky Tonk Train Blues
TTITLE5=Louis Jordan - I'm Gonna Move To The Outskirts Of Town
TTITLE6=Louis Jordan - Infantry Blues
TTITLE7=Ernie Morris - In The Mood
TTITLE8=Butterfly McQueen and Bubbles Whitman - Comedy Routine
TTITLE9=Sister Rosetta Tharpe - This Train
TTITLE10=Louis Jordan - Knock Me a Kiss
TTITLE11=Louis Jordan - One O'Clock Jump
TTITLE12=Joe "Honeydripper' Liggins - Pink Champagne
TTITLE13=Johnny Otis Band - Harlem Nocturne
TTITLE14=Big Jay McNeely - The Goof
TTITLE15=Big Jay McNeely - Serenade In Blue
TTITLE16=Big Jay McNeely - Deacon's Parade
TTITLE17=Big Jay McNeely - Boogie In The Front
TTITLE18=Big Jay McNeely - Body and Soul
TTITLE19=Big Jay McNeely - Deacon's Hop
TTITLE20=Amos Milburn - I'm Just a Fool in Love
TTITLE21=Eddie 'Cleanhead' Vinson - Charmaine
TTITLE22=Sister Rosetta Tharpe - Didn't It Rain, Children
TTITLE23=Bull Moose Jackson - Time Alone Will Tell
TTITLE24=Ensemble Jam Session - Let's Ball Tonight
EXTD=
EXTT0=
EXTT1=
EXTT2=
EXTT3=
EXTT4=
EXTT5=
EXTT6=
EXTT7=
EXTT8=
EXTT9=
EXTT10=
EXTT11=
EXTT12=
EXTT13=
EXTT14=
EXTT15=
EXTT16=
EXTT17=
EXTT18=
EXTT19=
EXTT20=
EXTT21=
EXTT22=
EXTT23=
EXTT24=
PLAYORDER=
